<mxfile host="app.diagrams.net" modified="2024-11-21T06:22:26.906Z" agent="Mozilla/5.0 (Windows NT 10.0; Win64; x64) AppleWebKit/537.36 (KHTML, like Gecko) Chrome/130.0.0.0 Safari/537.36" etag="CBS4iyUGSNrC3Lus2ms8" version="22.1.16" type="github">
  <diagram name="第 1 页" id="FpTrYO_zkX4w7IFrAijQ">
    <mxGraphModel dx="2074" dy="1098" grid="1" gridSize="10" guides="1" tooltips="1" connect="1" arrows="1" fold="1" page="1" pageScale="1" pageWidth="827" pageHeight="1169" math="0" shadow="0">
      <root>
        <mxCell id="0" />
        <mxCell id="1" parent="0" />
        <mxCell id="J7La4h1lOneiyXI5X-HG-1" value="" style="ellipse;whiteSpace=wrap;html=1;aspect=fixed;comic=1;fillColor=#dae8fc;strokeColor=#000000;sketch=1;curveFitting=1;jiggle=2;fillStyle=solid;" vertex="1" parent="1">
          <mxGeometry x="80" y="545" width="40" height="40" as="geometry" />
        </mxCell>
        <mxCell id="J7La4h1lOneiyXI5X-HG-3" value="&lt;font face=&quot;Comic Sans MS&quot; style=&quot;font-size: 25px;&quot;&gt;GAN&lt;/font&gt;" style="rounded=1;whiteSpace=wrap;html=1;comic=1;jiggle=1;allowArrows=0;snapToPoint=1;fillColor=#D4E1F5;strokeColor=#000000;sketch=1;curveFitting=1;shadow=0;glass=0;sketchStyle=rough;" vertex="1" parent="1">
          <mxGeometry x="40" y="440" width="120" height="60" as="geometry" />
        </mxCell>
        <mxCell id="J7La4h1lOneiyXI5X-HG-4" value="" style="ellipse;whiteSpace=wrap;html=1;aspect=fixed;comic=1;fillColor=#dae8fc;strokeColor=#000000;sketch=1;curveFitting=1;jiggle=2;fillStyle=solid;" vertex="1" parent="1">
          <mxGeometry x="220" y="545" width="40" height="40" as="geometry" />
        </mxCell>
      </root>
    </mxGraphModel>
  </diagram>
</mxfile>
